<mxfile host="app.diagrams.net" modified="2023-10-20T05:56:20.562Z" agent="Mozilla/5.0 (Windows NT 10.0; Win64; x64) AppleWebKit/537.36 (KHTML, like Gecko) Chrome/116.0.0.0 Safari/537.36 OPR/102.0.0.0" etag="ngGnsnhr2kCsqcuYQDMd" version="22.0.5" type="device">
  <diagram name="Página-1" id="gWVcj5YXT6tBU2rBWjBN">
    <mxGraphModel dx="1639" dy="901" grid="1" gridSize="10" guides="1" tooltips="1" connect="1" arrows="1" fold="1" page="1" pageScale="1" pageWidth="827" pageHeight="1169" math="0" shadow="0">
      <root>
        <mxCell id="0" />
        <mxCell id="1" parent="0" />
        <mxCell id="Trl6ogpPUJDb91EOsjQq-227" value="Usuario" style="swimlane;fontStyle=0;childLayout=stackLayout;horizontal=1;startSize=26;fillColor=#f8cecc;horizontalStack=0;resizeParent=1;resizeParentMax=0;resizeLast=0;collapsible=1;marginBottom=0;whiteSpace=wrap;html=1;strokeColor=#b85450;" parent="1" vertex="1">
          <mxGeometry x="40" y="20" width="140" height="328" as="geometry" />
        </mxCell>
        <mxCell id="Trl6ogpPUJDb91EOsjQq-228" value="&lt;b&gt;id(PK): int&lt;/b&gt;" style="text;strokeColor=none;fillColor=none;align=center;verticalAlign=top;spacingLeft=4;spacingRight=4;overflow=hidden;rotatable=0;points=[[0,0.5],[1,0.5]];portConstraint=eastwest;whiteSpace=wrap;html=1;fontColor=#143642;" parent="Trl6ogpPUJDb91EOsjQq-227" vertex="1">
          <mxGeometry y="26" width="140" height="26" as="geometry" />
        </mxCell>
        <mxCell id="Trl6ogpPUJDb91EOsjQq-229" value="nombre/s: varchar(90)" style="text;strokeColor=none;fillColor=none;align=center;verticalAlign=top;spacingLeft=4;spacingRight=4;overflow=hidden;rotatable=0;points=[[0,0.5],[1,0.5]];portConstraint=eastwest;whiteSpace=wrap;html=1;fontColor=#143642;" parent="Trl6ogpPUJDb91EOsjQq-227" vertex="1">
          <mxGeometry y="52" width="140" height="26" as="geometry" />
        </mxCell>
        <mxCell id="Trl6ogpPUJDb91EOsjQq-240" value="apellido/s: varchar(90)" style="text;strokeColor=none;fillColor=none;align=center;verticalAlign=top;spacingLeft=4;spacingRight=4;overflow=hidden;rotatable=0;points=[[0,0.5],[1,0.5]];portConstraint=eastwest;whiteSpace=wrap;html=1;fontColor=#143642;" parent="Trl6ogpPUJDb91EOsjQq-227" vertex="1">
          <mxGeometry y="78" width="140" height="26" as="geometry" />
        </mxCell>
        <mxCell id="tPulZWrpUTLhjtsQkggX-11" value="Dni: int(9)" style="text;strokeColor=none;fillColor=none;align=center;verticalAlign=top;spacingLeft=4;spacingRight=4;overflow=hidden;rotatable=0;points=[[0,0.5],[1,0.5]];portConstraint=eastwest;whiteSpace=wrap;html=1;fontColor=#143642;" vertex="1" parent="Trl6ogpPUJDb91EOsjQq-227">
          <mxGeometry y="104" width="140" height="26" as="geometry" />
        </mxCell>
        <mxCell id="Trl6ogpPUJDb91EOsjQq-230" value="email: varchar" style="text;strokeColor=none;fillColor=none;align=center;verticalAlign=top;spacingLeft=4;spacingRight=4;overflow=hidden;rotatable=0;points=[[0,0.5],[1,0.5]];portConstraint=eastwest;whiteSpace=wrap;html=1;fontColor=#143642;" parent="Trl6ogpPUJDb91EOsjQq-227" vertex="1">
          <mxGeometry y="130" width="140" height="26" as="geometry" />
        </mxCell>
        <mxCell id="Trl6ogpPUJDb91EOsjQq-239" value="contraseña: varchar(16)" style="text;strokeColor=none;fillColor=none;align=center;verticalAlign=top;spacingLeft=4;spacingRight=4;overflow=hidden;rotatable=0;points=[[0,0.5],[1,0.5]];portConstraint=eastwest;whiteSpace=wrap;html=1;fontColor=#143642;" parent="Trl6ogpPUJDb91EOsjQq-227" vertex="1">
          <mxGeometry y="156" width="140" height="26" as="geometry" />
        </mxCell>
        <mxCell id="Trl6ogpPUJDb91EOsjQq-237" value="domicilio: varchar&lt;br&gt;" style="text;strokeColor=none;fillColor=none;align=center;verticalAlign=top;spacingLeft=4;spacingRight=4;overflow=hidden;rotatable=0;points=[[0,0.5],[1,0.5]];portConstraint=eastwest;whiteSpace=wrap;html=1;fontColor=#143642;" parent="Trl6ogpPUJDb91EOsjQq-227" vertex="1">
          <mxGeometry y="182" width="140" height="26" as="geometry" />
        </mxCell>
        <mxCell id="Trl6ogpPUJDb91EOsjQq-246" value="&lt;b&gt;rol(FK): int&lt;/b&gt;" style="text;strokeColor=none;fillColor=none;align=center;verticalAlign=top;spacingLeft=4;spacingRight=4;overflow=hidden;rotatable=0;points=[[0,0.5],[1,0.5]];portConstraint=eastwest;whiteSpace=wrap;html=1;fontColor=#143642;" parent="Trl6ogpPUJDb91EOsjQq-227" vertex="1">
          <mxGeometry y="208" width="140" height="26" as="geometry" />
        </mxCell>
        <mxCell id="Trl6ogpPUJDb91EOsjQq-238" value="departamento(FK): int&amp;nbsp;" style="text;strokeColor=none;fillColor=none;align=center;verticalAlign=top;spacingLeft=4;spacingRight=4;overflow=hidden;rotatable=0;points=[[0,0.5],[1,0.5]];portConstraint=eastwest;whiteSpace=wrap;html=1;fontColor=#143642;fontStyle=1" parent="Trl6ogpPUJDb91EOsjQq-227" vertex="1">
          <mxGeometry y="234" width="140" height="34" as="geometry" />
        </mxCell>
        <mxCell id="Trl6ogpPUJDb91EOsjQq-245" value="&lt;b&gt;curso/s(FK): int&lt;/b&gt;" style="text;strokeColor=none;fillColor=none;align=center;verticalAlign=top;spacingLeft=4;spacingRight=4;overflow=hidden;rotatable=0;points=[[0,0.5],[1,0.5]];portConstraint=eastwest;whiteSpace=wrap;html=1;fontColor=#143642;" parent="Trl6ogpPUJDb91EOsjQq-227" vertex="1">
          <mxGeometry y="268" width="140" height="26" as="geometry" />
        </mxCell>
        <mxCell id="Trl6ogpPUJDb91EOsjQq-231" value="fechaDeNacimiento : date" style="text;strokeColor=none;fillColor=none;align=center;verticalAlign=top;spacingLeft=4;spacingRight=4;overflow=hidden;rotatable=0;points=[[0,0.5],[1,0.5]];portConstraint=eastwest;whiteSpace=wrap;html=1;fontColor=#143642;" parent="Trl6ogpPUJDb91EOsjQq-227" vertex="1">
          <mxGeometry y="294" width="140" height="34" as="geometry" />
        </mxCell>
        <mxCell id="Trl6ogpPUJDb91EOsjQq-232" value="Categoria" style="swimlane;fontStyle=0;childLayout=stackLayout;horizontal=1;startSize=26;fillColor=#f8cecc;horizontalStack=0;resizeParent=1;resizeParentMax=0;resizeLast=0;collapsible=1;marginBottom=0;whiteSpace=wrap;html=1;strokeColor=#b85450;" parent="1" vertex="1">
          <mxGeometry x="510" y="80" width="140" height="78" as="geometry" />
        </mxCell>
        <mxCell id="Trl6ogpPUJDb91EOsjQq-233" value="&lt;b&gt;id(PK):int&lt;/b&gt;" style="text;strokeColor=none;fillColor=none;align=center;verticalAlign=top;spacingLeft=4;spacingRight=4;overflow=hidden;rotatable=0;points=[[0,0.5],[1,0.5]];portConstraint=eastwest;whiteSpace=wrap;html=1;fontColor=#143642;" parent="Trl6ogpPUJDb91EOsjQq-232" vertex="1">
          <mxGeometry y="26" width="140" height="26" as="geometry" />
        </mxCell>
        <mxCell id="Trl6ogpPUJDb91EOsjQq-236" value="categoria: var(20)" style="text;strokeColor=none;fillColor=none;align=center;verticalAlign=top;spacingLeft=4;spacingRight=4;overflow=hidden;rotatable=0;points=[[0,0.5],[1,0.5]];portConstraint=eastwest;whiteSpace=wrap;html=1;fontColor=#143642;" parent="Trl6ogpPUJDb91EOsjQq-232" vertex="1">
          <mxGeometry y="52" width="140" height="26" as="geometry" />
        </mxCell>
        <mxCell id="Trl6ogpPUJDb91EOsjQq-247" value="Rol" style="swimlane;fontStyle=0;childLayout=stackLayout;horizontal=1;startSize=26;fillColor=#f8cecc;horizontalStack=0;resizeParent=1;resizeParentMax=0;resizeLast=0;collapsible=1;marginBottom=0;whiteSpace=wrap;html=1;strokeColor=#b85450;" parent="1" vertex="1">
          <mxGeometry x="274" y="20" width="140" height="78" as="geometry" />
        </mxCell>
        <mxCell id="Trl6ogpPUJDb91EOsjQq-248" value="&lt;b&gt;id(PK): int&lt;/b&gt;" style="text;strokeColor=none;fillColor=none;align=center;verticalAlign=top;spacingLeft=4;spacingRight=4;overflow=hidden;rotatable=0;points=[[0,0.5],[1,0.5]];portConstraint=eastwest;whiteSpace=wrap;html=1;fontColor=#143642;" parent="Trl6ogpPUJDb91EOsjQq-247" vertex="1">
          <mxGeometry y="26" width="140" height="26" as="geometry" />
        </mxCell>
        <mxCell id="Trl6ogpPUJDb91EOsjQq-249" value="rol: varchar(15)" style="text;strokeColor=none;fillColor=none;align=center;verticalAlign=top;spacingLeft=4;spacingRight=4;overflow=hidden;rotatable=0;points=[[0,0.5],[1,0.5]];portConstraint=eastwest;whiteSpace=wrap;html=1;fontColor=#143642;" parent="Trl6ogpPUJDb91EOsjQq-247" vertex="1">
          <mxGeometry y="52" width="140" height="26" as="geometry" />
        </mxCell>
        <mxCell id="Trl6ogpPUJDb91EOsjQq-253" value="Cursos" style="swimlane;fontStyle=0;childLayout=stackLayout;horizontal=1;startSize=26;fillColor=#f8cecc;horizontalStack=0;resizeParent=1;resizeParentMax=0;resizeLast=0;collapsible=1;marginBottom=0;whiteSpace=wrap;html=1;strokeColor=#b85450;" parent="1" vertex="1">
          <mxGeometry x="274" y="270" width="140" height="426" as="geometry" />
        </mxCell>
        <mxCell id="Trl6ogpPUJDb91EOsjQq-254" value="&lt;b&gt;id(pk):int&lt;/b&gt;" style="text;strokeColor=none;fillColor=none;align=center;verticalAlign=top;spacingLeft=4;spacingRight=4;overflow=hidden;rotatable=0;points=[[0,0.5],[1,0.5]];portConstraint=eastwest;whiteSpace=wrap;html=1;fontColor=#143642;" parent="Trl6ogpPUJDb91EOsjQq-253" vertex="1">
          <mxGeometry y="26" width="140" height="26" as="geometry" />
        </mxCell>
        <mxCell id="Trl6ogpPUJDb91EOsjQq-255" value="titulo: varchar (36)" style="text;strokeColor=none;fillColor=none;align=center;verticalAlign=top;spacingLeft=4;spacingRight=4;overflow=hidden;rotatable=0;points=[[0,0.5],[1,0.5]];portConstraint=eastwest;whiteSpace=wrap;html=1;fontColor=#143642;" parent="Trl6ogpPUJDb91EOsjQq-253" vertex="1">
          <mxGeometry y="52" width="140" height="26" as="geometry" />
        </mxCell>
        <mxCell id="Trl6ogpPUJDb91EOsjQq-258" value="&lt;b style=&quot;border-color: var(--border-color);&quot;&gt;categoria(FK):int&lt;/b&gt;" style="text;strokeColor=none;fillColor=none;align=center;verticalAlign=top;spacingLeft=4;spacingRight=4;overflow=hidden;rotatable=0;points=[[0,0.5],[1,0.5]];portConstraint=eastwest;whiteSpace=wrap;html=1;fontColor=#143642;" parent="Trl6ogpPUJDb91EOsjQq-253" vertex="1">
          <mxGeometry y="78" width="140" height="26" as="geometry" />
        </mxCell>
        <mxCell id="Trl6ogpPUJDb91EOsjQq-262" value="&lt;b&gt;aulas(FK): int&lt;/b&gt;" style="text;strokeColor=none;fillColor=none;align=center;verticalAlign=top;spacingLeft=4;spacingRight=4;overflow=hidden;rotatable=0;points=[[0,0.5],[1,0.5]];portConstraint=eastwest;whiteSpace=wrap;html=1;fontColor=#143642;" parent="Trl6ogpPUJDb91EOsjQq-253" vertex="1">
          <mxGeometry y="104" width="140" height="26" as="geometry" />
        </mxCell>
        <mxCell id="Trl6ogpPUJDb91EOsjQq-265" value="tallerista:varchar(90)" style="text;strokeColor=none;fillColor=none;align=center;verticalAlign=top;spacingLeft=4;spacingRight=4;overflow=hidden;rotatable=0;points=[[0,0.5],[1,0.5]];portConstraint=eastwest;whiteSpace=wrap;html=1;fontColor=#143642;" parent="Trl6ogpPUJDb91EOsjQq-253" vertex="1">
          <mxGeometry y="130" width="140" height="30" as="geometry" />
        </mxCell>
        <mxCell id="Trl6ogpPUJDb91EOsjQq-256" value="descripcion: varchar(500)" style="text;strokeColor=none;fillColor=none;align=center;verticalAlign=top;spacingLeft=4;spacingRight=4;overflow=hidden;rotatable=0;points=[[0,0.5],[1,0.5]];portConstraint=eastwest;whiteSpace=wrap;html=1;fontColor=#143642;" parent="Trl6ogpPUJDb91EOsjQq-253" vertex="1">
          <mxGeometry y="160" width="140" height="42" as="geometry" />
        </mxCell>
        <mxCell id="Trl6ogpPUJDb91EOsjQq-257" value="imagen: longtext" style="text;strokeColor=none;fillColor=none;align=center;verticalAlign=top;spacingLeft=4;spacingRight=4;overflow=hidden;rotatable=0;points=[[0,0.5],[1,0.5]];portConstraint=eastwest;whiteSpace=wrap;html=1;fontColor=#143642;" parent="Trl6ogpPUJDb91EOsjQq-253" vertex="1">
          <mxGeometry y="202" width="140" height="26" as="geometry" />
        </mxCell>
        <mxCell id="Trl6ogpPUJDb91EOsjQq-259" value="fechaDeInicio: date" style="text;strokeColor=none;fillColor=none;align=center;verticalAlign=top;spacingLeft=4;spacingRight=4;overflow=hidden;rotatable=0;points=[[0,0.5],[1,0.5]];portConstraint=eastwest;whiteSpace=wrap;html=1;fontColor=#143642;" parent="Trl6ogpPUJDb91EOsjQq-253" vertex="1">
          <mxGeometry y="228" width="140" height="26" as="geometry" />
        </mxCell>
        <mxCell id="Trl6ogpPUJDb91EOsjQq-260" value="fechaDeFinalizacion: date" style="text;strokeColor=none;fillColor=none;align=center;verticalAlign=top;spacingLeft=4;spacingRight=4;overflow=hidden;rotatable=0;points=[[0,0.5],[1,0.5]];portConstraint=eastwest;whiteSpace=wrap;html=1;fontColor=#143642;" parent="Trl6ogpPUJDb91EOsjQq-253" vertex="1">
          <mxGeometry y="254" width="140" height="42" as="geometry" />
        </mxCell>
        <mxCell id="Trl6ogpPUJDb91EOsjQq-261" value="cupoMaximo: tinyint" style="text;strokeColor=none;fillColor=none;align=center;verticalAlign=top;spacingLeft=4;spacingRight=4;overflow=hidden;rotatable=0;points=[[0,0.5],[1,0.5]];portConstraint=eastwest;whiteSpace=wrap;html=1;fontColor=#143642;" parent="Trl6ogpPUJDb91EOsjQq-253" vertex="1">
          <mxGeometry y="296" width="140" height="26" as="geometry" />
        </mxCell>
        <mxCell id="tPulZWrpUTLhjtsQkggX-2" value="&lt;b&gt;bloques(FK):int&lt;/b&gt;" style="text;strokeColor=none;fillColor=none;align=center;verticalAlign=top;spacingLeft=4;spacingRight=4;overflow=hidden;rotatable=0;points=[[0,0.5],[1,0.5]];portConstraint=eastwest;whiteSpace=wrap;html=1;fontColor=#143642;" vertex="1" parent="Trl6ogpPUJDb91EOsjQq-253">
          <mxGeometry y="322" width="140" height="26" as="geometry" />
        </mxCell>
        <mxCell id="Trl6ogpPUJDb91EOsjQq-263" value="dias: char(21)" style="text;strokeColor=none;fillColor=none;align=center;verticalAlign=top;spacingLeft=4;spacingRight=4;overflow=hidden;rotatable=0;points=[[0,0.5],[1,0.5]];portConstraint=eastwest;whiteSpace=wrap;html=1;fontColor=#143642;" parent="Trl6ogpPUJDb91EOsjQq-253" vertex="1">
          <mxGeometry y="348" width="140" height="26" as="geometry" />
        </mxCell>
        <mxCell id="Trl6ogpPUJDb91EOsjQq-264" value="horarios: char(13)" style="text;strokeColor=none;fillColor=none;align=center;verticalAlign=top;spacingLeft=4;spacingRight=4;overflow=hidden;rotatable=0;points=[[0,0.5],[1,0.5]];portConstraint=eastwest;whiteSpace=wrap;html=1;fontColor=#143642;" parent="Trl6ogpPUJDb91EOsjQq-253" vertex="1">
          <mxGeometry y="374" width="140" height="26" as="geometry" />
        </mxCell>
        <mxCell id="Trl6ogpPUJDb91EOsjQq-266" value="&lt;b&gt;modulos(FK):Int&lt;/b&gt;" style="text;strokeColor=none;fillColor=none;align=center;verticalAlign=top;spacingLeft=4;spacingRight=4;overflow=hidden;rotatable=0;points=[[0,0.5],[1,0.5]];portConstraint=eastwest;whiteSpace=wrap;html=1;fontColor=#143642;" parent="Trl6ogpPUJDb91EOsjQq-253" vertex="1">
          <mxGeometry y="400" width="140" height="26" as="geometry" />
        </mxCell>
        <mxCell id="Trl6ogpPUJDb91EOsjQq-267" value="Modulos" style="swimlane;fontStyle=0;childLayout=stackLayout;horizontal=1;startSize=26;fillColor=#f8cecc;horizontalStack=0;resizeParent=1;resizeParentMax=0;resizeLast=0;collapsible=1;marginBottom=0;whiteSpace=wrap;html=1;strokeColor=#b85450;" parent="1" vertex="1">
          <mxGeometry x="510" y="750" width="140" height="156" as="geometry" />
        </mxCell>
        <mxCell id="Trl6ogpPUJDb91EOsjQq-268" value="&lt;b&gt;id(PK)&lt;/b&gt;" style="text;strokeColor=none;fillColor=none;align=center;verticalAlign=top;spacingLeft=4;spacingRight=4;overflow=hidden;rotatable=0;points=[[0,0.5],[1,0.5]];portConstraint=eastwest;whiteSpace=wrap;html=1;fontColor=#143642;" parent="Trl6ogpPUJDb91EOsjQq-267" vertex="1">
          <mxGeometry y="26" width="140" height="26" as="geometry" />
        </mxCell>
        <mxCell id="Trl6ogpPUJDb91EOsjQq-269" value="titulo:char" style="text;strokeColor=none;fillColor=none;align=center;verticalAlign=top;spacingLeft=4;spacingRight=4;overflow=hidden;rotatable=0;points=[[0,0.5],[1,0.5]];portConstraint=eastwest;whiteSpace=wrap;html=1;fontColor=#143642;" parent="Trl6ogpPUJDb91EOsjQq-267" vertex="1">
          <mxGeometry y="52" width="140" height="26" as="geometry" />
        </mxCell>
        <mxCell id="Trl6ogpPUJDb91EOsjQq-270" value="descripcion:varchar" style="text;strokeColor=none;fillColor=none;align=center;verticalAlign=top;spacingLeft=4;spacingRight=4;overflow=hidden;rotatable=0;points=[[0,0.5],[1,0.5]];portConstraint=eastwest;whiteSpace=wrap;html=1;fontColor=#143642;" parent="Trl6ogpPUJDb91EOsjQq-267" vertex="1">
          <mxGeometry y="78" width="140" height="26" as="geometry" />
        </mxCell>
        <mxCell id="Trl6ogpPUJDb91EOsjQq-271" value="&lt;b&gt;visibilidad(FK):int&lt;/b&gt;" style="text;strokeColor=none;fillColor=none;align=center;verticalAlign=top;spacingLeft=4;spacingRight=4;overflow=hidden;rotatable=0;points=[[0,0.5],[1,0.5]];portConstraint=eastwest;whiteSpace=wrap;html=1;fontColor=#143642;" parent="Trl6ogpPUJDb91EOsjQq-267" vertex="1">
          <mxGeometry y="104" width="140" height="26" as="geometry" />
        </mxCell>
        <mxCell id="Trl6ogpPUJDb91EOsjQq-272" value="duracion(hs): int(4)" style="text;strokeColor=none;fillColor=none;align=center;verticalAlign=top;spacingLeft=4;spacingRight=4;overflow=hidden;rotatable=0;points=[[0,0.5],[1,0.5]];portConstraint=eastwest;whiteSpace=wrap;html=1;fontColor=#143642;" parent="Trl6ogpPUJDb91EOsjQq-267" vertex="1">
          <mxGeometry y="130" width="140" height="26" as="geometry" />
        </mxCell>
        <mxCell id="Trl6ogpPUJDb91EOsjQq-273" value="Departamentos" style="swimlane;fontStyle=0;childLayout=stackLayout;horizontal=1;startSize=26;fillColor=#f8cecc;horizontalStack=0;resizeParent=1;resizeParentMax=0;resizeLast=0;collapsible=1;marginBottom=0;whiteSpace=wrap;html=1;strokeColor=#b85450;" parent="1" vertex="1">
          <mxGeometry x="274" y="124" width="140" height="100" as="geometry" />
        </mxCell>
        <mxCell id="Trl6ogpPUJDb91EOsjQq-274" value="&lt;b&gt;id(PK):int&lt;/b&gt;" style="text;strokeColor=none;fillColor=none;align=center;verticalAlign=top;spacingLeft=4;spacingRight=4;overflow=hidden;rotatable=0;points=[[0,0.5],[1,0.5]];portConstraint=eastwest;whiteSpace=wrap;html=1;fontColor=#143642;" parent="Trl6ogpPUJDb91EOsjQq-273" vertex="1">
          <mxGeometry y="26" width="140" height="26" as="geometry" />
        </mxCell>
        <mxCell id="Trl6ogpPUJDb91EOsjQq-275" value="departamento; varchar(15)" style="text;strokeColor=none;fillColor=none;align=center;verticalAlign=top;spacingLeft=4;spacingRight=4;overflow=hidden;rotatable=0;points=[[0,0.5],[1,0.5]];portConstraint=eastwest;whiteSpace=wrap;html=1;fontColor=#143642;" parent="Trl6ogpPUJDb91EOsjQq-273" vertex="1">
          <mxGeometry y="52" width="140" height="48" as="geometry" />
        </mxCell>
        <mxCell id="5LOl_uwtcelqdM_KmDDy-1" value="Bloques" style="swimlane;fontStyle=0;childLayout=stackLayout;horizontal=1;startSize=26;fillColor=#f8cecc;horizontalStack=0;resizeParent=1;resizeParentMax=0;resizeLast=0;collapsible=1;marginBottom=0;whiteSpace=wrap;html=1;strokeColor=#b85450;" parent="1" vertex="1">
          <mxGeometry x="510" y="440" width="150" height="130" as="geometry" />
        </mxCell>
        <mxCell id="5LOl_uwtcelqdM_KmDDy-2" value="&lt;b&gt;id(pk)&lt;/b&gt;" style="text;strokeColor=none;fillColor=none;align=center;verticalAlign=top;spacingLeft=4;spacingRight=4;overflow=hidden;rotatable=0;points=[[0,0.5],[1,0.5]];portConstraint=eastwest;whiteSpace=wrap;html=1;fontColor=#143642;" parent="5LOl_uwtcelqdM_KmDDy-1" vertex="1">
          <mxGeometry y="26" width="150" height="26" as="geometry" />
        </mxCell>
        <mxCell id="5LOl_uwtcelqdM_KmDDy-3" value="titulo: varchar(3)" style="text;strokeColor=none;fillColor=none;align=center;verticalAlign=top;spacingLeft=4;spacingRight=4;overflow=hidden;rotatable=0;points=[[0,0.5],[1,0.5]];portConstraint=eastwest;whiteSpace=wrap;html=1;fontColor=#143642;" parent="5LOl_uwtcelqdM_KmDDy-1" vertex="1">
          <mxGeometry y="52" width="150" height="26" as="geometry" />
        </mxCell>
        <mxCell id="tPulZWrpUTLhjtsQkggX-3" value="&lt;span style=&quot;border-color: var(--border-color);&quot;&gt;&lt;b&gt;tiposBloques(FK):int&lt;/b&gt;&lt;/span&gt;" style="text;strokeColor=none;fillColor=none;align=center;verticalAlign=top;spacingLeft=4;spacingRight=4;overflow=hidden;rotatable=0;points=[[0,0.5],[1,0.5]];portConstraint=eastwest;whiteSpace=wrap;html=1;fontColor=#143642;" vertex="1" parent="5LOl_uwtcelqdM_KmDDy-1">
          <mxGeometry y="78" width="150" height="26" as="geometry" />
        </mxCell>
        <mxCell id="5LOl_uwtcelqdM_KmDDy-4" value="&lt;b style=&quot;border-color: var(--border-color);&quot;&gt;visibilidad(FK):int&lt;/b&gt;" style="text;strokeColor=none;fillColor=none;align=center;verticalAlign=top;spacingLeft=4;spacingRight=4;overflow=hidden;rotatable=0;points=[[0,0.5],[1,0.5]];portConstraint=eastwest;whiteSpace=wrap;html=1;fontColor=#143642;" parent="5LOl_uwtcelqdM_KmDDy-1" vertex="1">
          <mxGeometry y="104" width="150" height="26" as="geometry" />
        </mxCell>
        <mxCell id="5LOl_uwtcelqdM_KmDDy-7" value="Eventos" style="swimlane;fontStyle=0;childLayout=stackLayout;horizontal=1;startSize=26;fillColor=#f8cecc;horizontalStack=0;resizeParent=1;resizeParentMax=0;resizeLast=0;collapsible=1;marginBottom=0;whiteSpace=wrap;html=1;strokeColor=#b85450;" parent="1" vertex="1">
          <mxGeometry x="750" y="18" width="140" height="312" as="geometry" />
        </mxCell>
        <mxCell id="5LOl_uwtcelqdM_KmDDy-8" value="&lt;b&gt;id(PK):int&lt;/b&gt;" style="text;strokeColor=none;fillColor=none;align=center;verticalAlign=top;spacingLeft=4;spacingRight=4;overflow=hidden;rotatable=0;points=[[0,0.5],[1,0.5]];portConstraint=eastwest;whiteSpace=wrap;html=1;fontColor=#143642;" parent="5LOl_uwtcelqdM_KmDDy-7" vertex="1">
          <mxGeometry y="26" width="140" height="26" as="geometry" />
        </mxCell>
        <mxCell id="5LOl_uwtcelqdM_KmDDy-9" value="titulo: varchar (36)" style="text;strokeColor=none;fillColor=none;align=center;verticalAlign=top;spacingLeft=4;spacingRight=4;overflow=hidden;rotatable=0;points=[[0,0.5],[1,0.5]];portConstraint=eastwest;whiteSpace=wrap;html=1;fontColor=#143642;" parent="5LOl_uwtcelqdM_KmDDy-7" vertex="1">
          <mxGeometry y="52" width="140" height="26" as="geometry" />
        </mxCell>
        <mxCell id="5LOl_uwtcelqdM_KmDDy-10" value="descripcion: varchar(500)" style="text;strokeColor=none;fillColor=none;align=center;verticalAlign=top;spacingLeft=4;spacingRight=4;overflow=hidden;rotatable=0;points=[[0,0.5],[1,0.5]];portConstraint=eastwest;whiteSpace=wrap;html=1;fontColor=#143642;" parent="5LOl_uwtcelqdM_KmDDy-7" vertex="1">
          <mxGeometry y="78" width="140" height="42" as="geometry" />
        </mxCell>
        <mxCell id="5LOl_uwtcelqdM_KmDDy-11" value="imagen: longtext" style="text;strokeColor=none;fillColor=none;align=center;verticalAlign=top;spacingLeft=4;spacingRight=4;overflow=hidden;rotatable=0;points=[[0,0.5],[1,0.5]];portConstraint=eastwest;whiteSpace=wrap;html=1;fontColor=#143642;" parent="5LOl_uwtcelqdM_KmDDy-7" vertex="1">
          <mxGeometry y="120" width="140" height="26" as="geometry" />
        </mxCell>
        <mxCell id="5LOl_uwtcelqdM_KmDDy-12" value="&lt;b style=&quot;border-color: var(--border-color);&quot;&gt;categoria(FK):int&lt;/b&gt;" style="text;strokeColor=none;fillColor=none;align=center;verticalAlign=top;spacingLeft=4;spacingRight=4;overflow=hidden;rotatable=0;points=[[0,0.5],[1,0.5]];portConstraint=eastwest;whiteSpace=wrap;html=1;fontColor=#143642;" parent="5LOl_uwtcelqdM_KmDDy-7" vertex="1">
          <mxGeometry y="146" width="140" height="26" as="geometry" />
        </mxCell>
        <mxCell id="5LOl_uwtcelqdM_KmDDy-48" value="cupoMaximo: tinyint" style="text;strokeColor=none;fillColor=none;align=center;verticalAlign=top;spacingLeft=4;spacingRight=4;overflow=hidden;rotatable=0;points=[[0,0.5],[1,0.5]];portConstraint=eastwest;whiteSpace=wrap;html=1;fontColor=#143642;" parent="5LOl_uwtcelqdM_KmDDy-7" vertex="1">
          <mxGeometry y="172" width="140" height="26" as="geometry" />
        </mxCell>
        <mxCell id="5LOl_uwtcelqdM_KmDDy-49" value="&lt;b style=&quot;border-color: var(--border-color);&quot;&gt;aulas(FK): int&lt;/b&gt;" style="text;strokeColor=none;fillColor=none;align=center;verticalAlign=top;spacingLeft=4;spacingRight=4;overflow=hidden;rotatable=0;points=[[0,0.5],[1,0.5]];portConstraint=eastwest;whiteSpace=wrap;html=1;fontColor=#143642;" parent="5LOl_uwtcelqdM_KmDDy-7" vertex="1">
          <mxGeometry y="198" width="140" height="26" as="geometry" />
        </mxCell>
        <mxCell id="5LOl_uwtcelqdM_KmDDy-50" value="duracion(hs) : smallint(4)" style="text;strokeColor=none;fillColor=none;align=center;verticalAlign=top;spacingLeft=4;spacingRight=4;overflow=hidden;rotatable=0;points=[[0,0.5],[1,0.5]];portConstraint=eastwest;whiteSpace=wrap;html=1;fontColor=#143642;" parent="5LOl_uwtcelqdM_KmDDy-7" vertex="1">
          <mxGeometry y="224" width="140" height="36" as="geometry" />
        </mxCell>
        <mxCell id="5LOl_uwtcelqdM_KmDDy-51" value="horario" style="text;strokeColor=none;fillColor=none;align=center;verticalAlign=top;spacingLeft=4;spacingRight=4;overflow=hidden;rotatable=0;points=[[0,0.5],[1,0.5]];portConstraint=eastwest;whiteSpace=wrap;html=1;fontColor=#143642;" parent="5LOl_uwtcelqdM_KmDDy-7" vertex="1">
          <mxGeometry y="260" width="140" height="26" as="geometry" />
        </mxCell>
        <mxCell id="5LOl_uwtcelqdM_KmDDy-52" value="tallerista:varchar(90)" style="text;strokeColor=none;fillColor=none;align=center;verticalAlign=top;spacingLeft=4;spacingRight=4;overflow=hidden;rotatable=0;points=[[0,0.5],[1,0.5]];portConstraint=eastwest;whiteSpace=wrap;html=1;fontColor=#143642;" parent="5LOl_uwtcelqdM_KmDDy-7" vertex="1">
          <mxGeometry y="286" width="140" height="26" as="geometry" />
        </mxCell>
        <mxCell id="5LOl_uwtcelqdM_KmDDy-13" value="TiposBloques" style="swimlane;fontStyle=0;childLayout=stackLayout;horizontal=1;startSize=26;fillColor=#f8cecc;horizontalStack=0;resizeParent=1;resizeParentMax=0;resizeLast=0;collapsible=1;marginBottom=0;whiteSpace=wrap;html=1;strokeColor=#b85450;" parent="1" vertex="1">
          <mxGeometry x="770" y="530" width="150" height="78" as="geometry" />
        </mxCell>
        <mxCell id="5LOl_uwtcelqdM_KmDDy-14" value="&lt;b&gt;id(pk)&lt;/b&gt;" style="text;strokeColor=none;fillColor=none;align=center;verticalAlign=top;spacingLeft=4;spacingRight=4;overflow=hidden;rotatable=0;points=[[0,0.5],[1,0.5]];portConstraint=eastwest;whiteSpace=wrap;html=1;fontColor=#143642;" parent="5LOl_uwtcelqdM_KmDDy-13" vertex="1">
          <mxGeometry y="26" width="150" height="26" as="geometry" />
        </mxCell>
        <mxCell id="5LOl_uwtcelqdM_KmDDy-15" value="TiposBloques:varchar(15)" style="text;strokeColor=none;fillColor=none;align=center;verticalAlign=top;spacingLeft=4;spacingRight=4;overflow=hidden;rotatable=0;points=[[0,0.5],[1,0.5]];portConstraint=eastwest;whiteSpace=wrap;html=1;fontColor=#143642;" parent="5LOl_uwtcelqdM_KmDDy-13" vertex="1">
          <mxGeometry y="52" width="150" height="26" as="geometry" />
        </mxCell>
        <mxCell id="5LOl_uwtcelqdM_KmDDy-22" value="" style="endArrow=none;html=1;rounded=0;entryX=0;entryY=0.5;entryDx=0;entryDy=0;endFill=0;exitX=0.998;exitY=0.471;exitDx=0;exitDy=0;exitPerimeter=0;" parent="1" source="Trl6ogpPUJDb91EOsjQq-246" target="Trl6ogpPUJDb91EOsjQq-248" edge="1">
          <mxGeometry width="50" height="50" relative="1" as="geometry">
            <mxPoint x="183" y="239" as="sourcePoint" />
            <mxPoint x="260" y="10" as="targetPoint" />
            <Array as="points">
              <mxPoint x="210" y="240" />
              <mxPoint x="210" y="59" />
            </Array>
          </mxGeometry>
        </mxCell>
        <mxCell id="5LOl_uwtcelqdM_KmDDy-26" value="" style="edgeStyle=none;orthogonalLoop=1;jettySize=auto;html=1;rounded=0;exitX=1;exitY=0.5;exitDx=0;exitDy=0;entryX=0;entryY=0.5;entryDx=0;entryDy=0;endArrow=none;endFill=0;" parent="1" source="Trl6ogpPUJDb91EOsjQq-238" target="Trl6ogpPUJDb91EOsjQq-274" edge="1">
          <mxGeometry width="100" relative="1" as="geometry">
            <mxPoint x="190" y="280" as="sourcePoint" />
            <mxPoint x="290" y="280" as="targetPoint" />
            <Array as="points">
              <mxPoint x="250" y="270" />
              <mxPoint x="250" y="163" />
            </Array>
          </mxGeometry>
        </mxCell>
        <mxCell id="5LOl_uwtcelqdM_KmDDy-28" value="M" style="text;html=1;align=center;verticalAlign=middle;resizable=0;points=[];autosize=1;strokeColor=none;fillColor=none;fontStyle=1" parent="1" vertex="1">
          <mxGeometry x="244" y="140" width="30" height="30" as="geometry" />
        </mxCell>
        <mxCell id="5LOl_uwtcelqdM_KmDDy-31" value="" style="edgeStyle=none;orthogonalLoop=1;jettySize=auto;html=1;rounded=0;exitX=1.005;exitY=0.593;exitDx=0;exitDy=0;endArrow=none;endFill=0;entryX=0.001;entryY=0.341;entryDx=0;entryDy=0;entryPerimeter=0;exitPerimeter=0;" parent="1" source="Trl6ogpPUJDb91EOsjQq-245" target="Trl6ogpPUJDb91EOsjQq-254" edge="1">
          <mxGeometry width="100" relative="1" as="geometry">
            <mxPoint x="178.80000000000007" y="311.78" as="sourcePoint" />
            <mxPoint x="270" y="350" as="targetPoint" />
            <Array as="points" />
          </mxGeometry>
        </mxCell>
        <mxCell id="5LOl_uwtcelqdM_KmDDy-34" value="" style="edgeStyle=none;orthogonalLoop=1;jettySize=auto;html=1;rounded=0;endArrow=none;endFill=0;entryX=0;entryY=0.5;entryDx=0;entryDy=0;exitX=0.991;exitY=0.625;exitDx=0;exitDy=0;exitPerimeter=0;" parent="1" source="Trl6ogpPUJDb91EOsjQq-258" edge="1" target="Trl6ogpPUJDb91EOsjQq-233">
          <mxGeometry width="100" relative="1" as="geometry">
            <mxPoint x="430" y="480" as="sourcePoint" />
            <mxPoint x="230" y="520" as="targetPoint" />
            <Array as="points">
              <mxPoint x="440" y="364" />
              <mxPoint x="440" y="119" />
            </Array>
          </mxGeometry>
        </mxCell>
        <mxCell id="5LOl_uwtcelqdM_KmDDy-36" value="&lt;b&gt;M&lt;/b&gt;" style="text;html=1;align=center;verticalAlign=middle;resizable=0;points=[];autosize=1;strokeColor=none;fillColor=none;" parent="1" vertex="1">
          <mxGeometry x="480" y="94" width="30" height="30" as="geometry" />
        </mxCell>
        <mxCell id="5LOl_uwtcelqdM_KmDDy-37" value="Visibilidad" style="swimlane;fontStyle=0;childLayout=stackLayout;horizontal=1;startSize=26;fillColor=#f8cecc;horizontalStack=0;resizeParent=1;resizeParentMax=0;resizeLast=0;collapsible=1;marginBottom=0;whiteSpace=wrap;html=1;strokeColor=#b85450;" parent="1" vertex="1">
          <mxGeometry x="510" y="608" width="140" height="78" as="geometry" />
        </mxCell>
        <mxCell id="5LOl_uwtcelqdM_KmDDy-38" value="&lt;b&gt;id(PK)&lt;/b&gt;" style="text;strokeColor=none;fillColor=none;align=center;verticalAlign=top;spacingLeft=4;spacingRight=4;overflow=hidden;rotatable=0;points=[[0,0.5],[1,0.5]];portConstraint=eastwest;whiteSpace=wrap;html=1;fontColor=#143642;" parent="5LOl_uwtcelqdM_KmDDy-37" vertex="1">
          <mxGeometry y="26" width="140" height="26" as="geometry" />
        </mxCell>
        <mxCell id="5LOl_uwtcelqdM_KmDDy-39" value="visibilidad: int(1)" style="text;strokeColor=none;fillColor=none;align=center;verticalAlign=top;spacingLeft=4;spacingRight=4;overflow=hidden;rotatable=0;points=[[0,0.5],[1,0.5]];portConstraint=eastwest;whiteSpace=wrap;html=1;fontColor=#143642;" parent="5LOl_uwtcelqdM_KmDDy-37" vertex="1">
          <mxGeometry y="52" width="140" height="26" as="geometry" />
        </mxCell>
        <mxCell id="tPulZWrpUTLhjtsQkggX-5" value="Aulas" style="swimlane;fontStyle=0;childLayout=stackLayout;horizontal=1;startSize=26;fillColor=#f8cecc;horizontalStack=0;resizeParent=1;resizeParentMax=0;resizeLast=0;collapsible=1;marginBottom=0;whiteSpace=wrap;html=1;strokeColor=#b85450;" vertex="1" parent="1">
          <mxGeometry x="510" y="196" width="150" height="78" as="geometry" />
        </mxCell>
        <mxCell id="tPulZWrpUTLhjtsQkggX-6" value="&lt;b&gt;id(PK)&lt;/b&gt;" style="text;strokeColor=none;fillColor=none;align=center;verticalAlign=top;spacingLeft=4;spacingRight=4;overflow=hidden;rotatable=0;points=[[0,0.5],[1,0.5]];portConstraint=eastwest;whiteSpace=wrap;html=1;fontColor=#143642;" vertex="1" parent="tPulZWrpUTLhjtsQkggX-5">
          <mxGeometry y="26" width="150" height="26" as="geometry" />
        </mxCell>
        <mxCell id="tPulZWrpUTLhjtsQkggX-7" value="TiposBloques:varchar(15)" style="text;strokeColor=none;fillColor=none;align=center;verticalAlign=top;spacingLeft=4;spacingRight=4;overflow=hidden;rotatable=0;points=[[0,0.5],[1,0.5]];portConstraint=eastwest;whiteSpace=wrap;html=1;fontColor=#143642;" vertex="1" parent="tPulZWrpUTLhjtsQkggX-5">
          <mxGeometry y="52" width="150" height="26" as="geometry" />
        </mxCell>
        <mxCell id="tPulZWrpUTLhjtsQkggX-12" value="" style="edgeStyle=none;orthogonalLoop=1;jettySize=auto;html=1;rounded=0;exitX=1;exitY=0.5;exitDx=0;exitDy=0;entryX=-0.012;entryY=0.641;entryDx=0;entryDy=0;entryPerimeter=0;endArrow=none;endFill=0;" edge="1" parent="1" source="Trl6ogpPUJDb91EOsjQq-266" target="Trl6ogpPUJDb91EOsjQq-268">
          <mxGeometry width="100" relative="1" as="geometry">
            <mxPoint x="350" y="810" as="sourcePoint" />
            <mxPoint x="450" y="810" as="targetPoint" />
            <Array as="points">
              <mxPoint x="450" y="683" />
              <mxPoint x="450" y="793" />
            </Array>
          </mxGeometry>
        </mxCell>
        <mxCell id="tPulZWrpUTLhjtsQkggX-13" value="" style="edgeStyle=none;orthogonalLoop=1;jettySize=auto;html=1;rounded=0;exitX=1;exitY=0.5;exitDx=0;exitDy=0;entryX=0.009;entryY=0.31;entryDx=0;entryDy=0;entryPerimeter=0;endArrow=none;endFill=0;" edge="1" parent="1" source="tPulZWrpUTLhjtsQkggX-2" target="5LOl_uwtcelqdM_KmDDy-2">
          <mxGeometry width="100" relative="1" as="geometry">
            <mxPoint x="420" y="590" as="sourcePoint" />
            <mxPoint x="520" y="590" as="targetPoint" />
            <Array as="points">
              <mxPoint x="440" y="605" />
              <mxPoint x="440" y="474" />
            </Array>
          </mxGeometry>
        </mxCell>
        <mxCell id="tPulZWrpUTLhjtsQkggX-14" value="" style="edgeStyle=none;orthogonalLoop=1;jettySize=auto;html=1;rounded=0;exitX=1;exitY=0.5;exitDx=0;exitDy=0;endArrow=none;endFill=0;" edge="1" parent="1" source="tPulZWrpUTLhjtsQkggX-3">
          <mxGeometry width="100" relative="1" as="geometry">
            <mxPoint x="690" y="580" as="sourcePoint" />
            <mxPoint x="770" y="570" as="targetPoint" />
            <Array as="points">
              <mxPoint x="700" y="531" />
              <mxPoint x="700" y="570" />
            </Array>
          </mxGeometry>
        </mxCell>
        <mxCell id="tPulZWrpUTLhjtsQkggX-16" value="" style="edgeStyle=none;orthogonalLoop=1;jettySize=auto;html=1;rounded=0;exitX=-0.017;exitY=0.521;exitDx=0;exitDy=0;exitPerimeter=0;entryX=-0.02;entryY=0.511;entryDx=0;entryDy=0;entryPerimeter=0;endArrow=none;endFill=0;" edge="1" parent="1" source="5LOl_uwtcelqdM_KmDDy-4" target="5LOl_uwtcelqdM_KmDDy-38">
          <mxGeometry width="100" relative="1" as="geometry">
            <mxPoint x="680" y="700" as="sourcePoint" />
            <mxPoint x="780" y="700" as="targetPoint" />
            <Array as="points">
              <mxPoint x="480" y="557" />
              <mxPoint x="480" y="647" />
            </Array>
          </mxGeometry>
        </mxCell>
        <mxCell id="tPulZWrpUTLhjtsQkggX-17" value="" style="edgeStyle=none;orthogonalLoop=1;jettySize=auto;html=1;rounded=0;exitX=1;exitY=0.5;exitDx=0;exitDy=0;entryX=1;entryY=0.5;entryDx=0;entryDy=0;endArrow=none;endFill=0;" edge="1" parent="1" source="Trl6ogpPUJDb91EOsjQq-271" target="5LOl_uwtcelqdM_KmDDy-38">
          <mxGeometry width="100" relative="1" as="geometry">
            <mxPoint x="690" y="770" as="sourcePoint" />
            <mxPoint x="790" y="770" as="targetPoint" />
            <Array as="points">
              <mxPoint x="690" y="867" />
              <mxPoint x="690" y="647" />
            </Array>
          </mxGeometry>
        </mxCell>
        <mxCell id="tPulZWrpUTLhjtsQkggX-19" value="" style="edgeStyle=none;orthogonalLoop=1;jettySize=auto;html=1;rounded=0;exitX=1;exitY=0.5;exitDx=0;exitDy=0;entryX=0;entryY=0.385;entryDx=0;entryDy=0;entryPerimeter=0;endArrow=none;endFill=0;" edge="1" parent="1" source="Trl6ogpPUJDb91EOsjQq-262" target="tPulZWrpUTLhjtsQkggX-6">
          <mxGeometry width="100" relative="1" as="geometry">
            <mxPoint x="430" y="390" as="sourcePoint" />
            <mxPoint x="505" y="232" as="targetPoint" />
            <Array as="points">
              <mxPoint x="460" y="387" />
              <mxPoint x="460" y="232" />
            </Array>
          </mxGeometry>
        </mxCell>
        <mxCell id="tPulZWrpUTLhjtsQkggX-22" value="" style="edgeStyle=none;orthogonalLoop=1;jettySize=auto;html=1;rounded=0;exitX=1;exitY=0.5;exitDx=0;exitDy=0;endArrow=none;endFill=0;" edge="1" parent="1" source="Trl6ogpPUJDb91EOsjQq-233">
          <mxGeometry width="100" relative="1" as="geometry">
            <mxPoint x="660" y="170" as="sourcePoint" />
            <mxPoint x="750" y="170" as="targetPoint" />
            <Array as="points">
              <mxPoint x="690" y="120" />
              <mxPoint x="690" y="170" />
            </Array>
          </mxGeometry>
        </mxCell>
        <mxCell id="tPulZWrpUTLhjtsQkggX-23" value="" style="edgeStyle=none;orthogonalLoop=1;jettySize=auto;html=1;rounded=0;exitX=1.005;exitY=0.353;exitDx=0;exitDy=0;entryX=-0.004;entryY=0.605;entryDx=0;entryDy=0;entryPerimeter=0;exitPerimeter=0;endArrow=none;endFill=0;" edge="1" parent="1" source="tPulZWrpUTLhjtsQkggX-6" target="5LOl_uwtcelqdM_KmDDy-49">
          <mxGeometry width="100" relative="1" as="geometry">
            <mxPoint x="680" y="250" as="sourcePoint" />
            <mxPoint x="780" y="250" as="targetPoint" />
            <Array as="points" />
          </mxGeometry>
        </mxCell>
        <mxCell id="tPulZWrpUTLhjtsQkggX-27" value="&lt;b&gt;N&lt;/b&gt;" style="text;html=1;align=center;verticalAlign=middle;resizable=0;points=[];autosize=1;strokeColor=none;fillColor=none;" vertex="1" parent="1">
          <mxGeometry x="244" y="30" width="30" height="30" as="geometry" />
        </mxCell>
        <mxCell id="tPulZWrpUTLhjtsQkggX-28" value="&lt;b&gt;M&lt;/b&gt;" style="text;html=1;align=center;verticalAlign=middle;resizable=0;points=[];autosize=1;strokeColor=none;fillColor=none;" vertex="1" parent="1">
          <mxGeometry x="480" y="770" width="30" height="30" as="geometry" />
        </mxCell>
        <mxCell id="tPulZWrpUTLhjtsQkggX-29" value="&lt;b&gt;M&lt;/b&gt;" style="text;html=1;align=center;verticalAlign=middle;resizable=0;points=[];autosize=1;strokeColor=none;fillColor=none;" vertex="1" parent="1">
          <mxGeometry x="480" y="450" width="30" height="30" as="geometry" />
        </mxCell>
        <mxCell id="tPulZWrpUTLhjtsQkggX-30" value="&lt;b&gt;M&lt;/b&gt;" style="text;html=1;align=center;verticalAlign=middle;resizable=0;points=[];autosize=1;strokeColor=none;fillColor=none;" vertex="1" parent="1">
          <mxGeometry x="430" y="360" width="30" height="30" as="geometry" />
        </mxCell>
        <mxCell id="tPulZWrpUTLhjtsQkggX-31" value="&lt;b&gt;N&lt;/b&gt;" style="text;html=1;align=center;verticalAlign=middle;resizable=0;points=[];autosize=1;strokeColor=none;fillColor=none;" vertex="1" parent="1">
          <mxGeometry x="480" y="210" width="30" height="30" as="geometry" />
        </mxCell>
        <mxCell id="tPulZWrpUTLhjtsQkggX-32" value="&lt;b&gt;M&lt;/b&gt;" style="text;html=1;align=center;verticalAlign=middle;resizable=0;points=[];autosize=1;strokeColor=none;fillColor=none;" vertex="1" parent="1">
          <mxGeometry x="650" y="94" width="30" height="30" as="geometry" />
        </mxCell>
        <mxCell id="tPulZWrpUTLhjtsQkggX-33" value="&lt;b&gt;M&lt;/b&gt;" style="text;html=1;align=center;verticalAlign=middle;resizable=0;points=[];autosize=1;strokeColor=none;fillColor=none;" vertex="1" parent="1">
          <mxGeometry x="720" y="210" width="30" height="30" as="geometry" />
        </mxCell>
        <mxCell id="tPulZWrpUTLhjtsQkggX-34" value="&lt;b&gt;N&lt;/b&gt;" style="text;html=1;align=center;verticalAlign=middle;resizable=0;points=[];autosize=1;strokeColor=none;fillColor=none;" vertex="1" parent="1">
          <mxGeometry x="660" y="210" width="30" height="30" as="geometry" />
        </mxCell>
        <mxCell id="tPulZWrpUTLhjtsQkggX-35" value="&lt;b&gt;M&lt;/b&gt;" style="text;html=1;align=center;verticalAlign=middle;resizable=0;points=[];autosize=1;strokeColor=none;fillColor=none;" vertex="1" parent="1">
          <mxGeometry x="660" y="500" width="30" height="30" as="geometry" />
        </mxCell>
        <mxCell id="tPulZWrpUTLhjtsQkggX-37" value="M" style="text;html=1;align=center;verticalAlign=middle;resizable=0;points=[];autosize=1;strokeColor=none;fillColor=none;fontStyle=1" vertex="1" parent="1">
          <mxGeometry x="180" y="210" width="30" height="30" as="geometry" />
        </mxCell>
        <mxCell id="tPulZWrpUTLhjtsQkggX-38" value="M" style="text;html=1;align=center;verticalAlign=middle;resizable=0;points=[];autosize=1;strokeColor=none;fillColor=none;fontStyle=1" vertex="1" parent="1">
          <mxGeometry x="170" y="280" width="30" height="30" as="geometry" />
        </mxCell>
        <mxCell id="tPulZWrpUTLhjtsQkggX-39" value="&lt;b&gt;N&lt;/b&gt;" style="text;html=1;align=center;verticalAlign=middle;resizable=0;points=[];autosize=1;strokeColor=none;fillColor=none;" vertex="1" parent="1">
          <mxGeometry x="250" y="280" width="30" height="30" as="geometry" />
        </mxCell>
        <mxCell id="tPulZWrpUTLhjtsQkggX-40" value="&lt;b&gt;N&lt;/b&gt;" style="text;html=1;align=center;verticalAlign=middle;resizable=0;points=[];autosize=1;strokeColor=none;fillColor=none;" vertex="1" parent="1">
          <mxGeometry x="410" y="340" width="30" height="30" as="geometry" />
        </mxCell>
        <mxCell id="tPulZWrpUTLhjtsQkggX-41" value="&lt;b&gt;N&lt;/b&gt;" style="text;html=1;align=center;verticalAlign=middle;resizable=0;points=[];autosize=1;strokeColor=none;fillColor=none;" vertex="1" parent="1">
          <mxGeometry x="720" y="140" width="30" height="30" as="geometry" />
        </mxCell>
      </root>
    </mxGraphModel>
  </diagram>
</mxfile>
